PathFileType	4	(X/Y/Z)	C:/Users/beibeiliu/ov580/test_trc/capture2\sequence.15_training_dense_left.trc
DataRate	CameraRate	NumFrames	NumMarkers	Units	OrigDataRate	OrigDataStartFrame	OrigNumFrames
120	120	17	19	mm	120	46	367
Frame#	Time	ThumbCMC			ThumbMCP			ThumbIP			ThumbTip			IndexMCP			IndexPIP			IndexTip			MiddleMCP			MiddlePIP			MiddleTip			RingMCP			RingPIP			RingTip			PinkyMCP			PinkyPIP			PinkyTip			BackHand1			BackHand2			BackHand3	
		X0	Y0	Z0	X1	Y1	Z1	X2	Y2	Z2	X3	Y3	Z3	X4	Y4	Z4	X5	Y5	Z5	X6	Y6	Z6	X7	Y7	Z7	X8	Y8	Z8	X9	Y9	Z9	X10	Y10	Z10	X11	Y11	Z11	X12	Y12	Z12	X13	Y13	Z13	X14	Y14	Z14	X15	Y15	Z15	X16	Y16	Z16	X17	Y17	Z17	X18	Y18	Z18	
45	0.375	-98.8835	51.2372	-30.7042	-80.7051	48.2294	-50.8664	-64.8198	52.0701	-66.2765	-48.3229	55.3002	-76.7701	-99.0048	62.5568	-103.006	-103.008	32.6428	-106.562	-109.804	34.2746	-74.0364	-121.134	60.1407	-107.029	-126.178	29.122	-100.222	-122.574	34.5151	-66.2398	-137.931	60.9166	-106.189	-138.817	31.2733	-102.352	-134.726	33.9977	-64.9851	-167.584	77.1646	-101.448	-175.251	72.0019	-119.223	-180.928	75.2286	-140.042	-149.579	87.0122	-53.0319	-148.349	80.3529	-21.9855	-116.825	79.375	-34.9438	
46	0.383333	-97.1856	57.326	-31.9615	-79.143	51.7435	-48.1079	-63.6971	57.4814	-65.6497	-47.9983	62.6748	-82.2716	-98.7326	66.139	-102.397	-102.422	36.278	-109.024	-112.309	37.3364	-74.8132	-119.232	62.0035	-107.849	-120.186	28.9587	-100.741	-121.742	35.4949	-66.8125	-143.812	60.562	-106.753	-135.475	30.0034	-101.96	-135.688	31.0936	-66.9476	-169.091	75.0756	-102.824	-172.136	70.683	-117.646	-180.709	69.3989	-140.732	-147.811	87.5231	-55.6259	-152.78	79.5398	-23.8	-118.155	81.8569	-36.2902	
47	0.391667	-98.0255	61.9007	-31.1519	-84.4277	58.1402	-51.4614	-61.1998	66.518	-67.3568	-46.9293	69.7175	-78.6033	-99.7489	67.9062	-105.377	-97.3145	40.5042	-107.969	-106.059	38.7386	-73.2928	-122.653	64.481	-106.717	-119.766	30.7682	-103.02	-117.997	37.0899	-66.2178	-141.594	55.1788	-109.265	-132.122	29.3696	-101.637	-131.524	31.6311	-65.9656	-168.809	68.8582	-101.118	-174.966	61.7028	-121.896	-181.811	60.3792	-145.746	-154.375	83.0758	-55.0901	-154.74	81.0362	-28.0997	-123.171	86.6695	-37.5469	
48	0.4	-103.629	68.9871	-29.5484	-87.5653	66.1808	-51.2704	-66.1861	77.5651	-68.3785	-55.7786	83.2462	-85.8308	-104.428	73.415	-105.045	-98.1203	43.4326	-106.754	-106.09	42.8938	-73.2455	-126.782	62.4505	-107.416	-111.693	33.0228	-100.852	-113.738	42.0182	-64.9547	-141.062	55.2285	-106.448	-130.065	25.0481	-99.2892	-124.869	36.2155	-66.1797	-174.103	57.0982	-104.75	-175.315	50.257	-125.388	-181.7	47.3837	-143.49	-163.032	79.0813	-57.0235	-162.901	75.6979	-31.1981	-135.767	87.3924	-38.899	
49	0.408333	-106.422	79.9532	-34.779	-93.5918	77.5943	-53.3963	-77.9906	89.3549	-72.3971	-65.1342	98.7748	-88.9623	-110.153	75.2875	-107.778	-95.5172	49.7973	-103.58	-102.53	50.1122	-72.7455	-127.729	61.2279	-109.361	-110.745	35.9228	-100.21	-117.622	45.2688	-62.9316	-143.599	49.0568	-109.297	-122.234	27.3637	-98.8885	-123.349	34.1945	-66.0473	-171.132	48.7389	-99.1834	-171.559	38.5753	-121.41	-181.903	29.1561	-144.154	-168.476	74.1967	-61.2242	-165.783	70.948	-30.3655	-142.617	88.8855	-42.4953	
50	0.416667	-114.975	86.0346	-32.3784	-100.511	89.3883	-56.5159	-89.9372	100.271	-75.9588	-78.6198	112.637	-91.5319	-117.778	81.1512	-105.222	-98.5256	54.6055	-104.55	-101.924	56.7392	-72.8232	-130.912	59.4706	-108.398	-107.456	39.6414	-98.7655	-114.596	47.5394	-64.4467	-143.886	46.5407	-107.559	-117.96	27.1479	-96.935	-120.446	40.1124	-64.6362	-170.33	33.7568	-101.68	-170.068	21.7405	-117.296	-172.217	14.0394	-138.939	-172.652	65.2997	-59.3913	-173.611	64.4278	-31.6236	-152.574	87.6606	-44.8519	
51	0.425	-122.159	91.5615	-35.366	-107.192	98.3714	-57.6881	-102.254	107.387	-80.9047	-94.7937	122.188	-100.447	-124.857	78.5679	-109.936	-99.9449	61.7079	-106.434	-107.37	63.643	-72.5128	-133.021	58.08	-109.197	-105.281	46.2646	-102.384	-117.197	55.2691	-62.902	-140.659	43.3711	-107.738	-112.459	32.8458	-97.2834	-117.023	40.2962	-65.9003	-166.804	22.983	-96.9009	-160.269	11.274	-118.696	-157.312	1.62217	-138.352	-173.261	58.2386	-61.7919	-174.702	56.0161	-31.0824	-158.835	86.6737	-47.9105	
52	0.433333	-133.313	92.6931	-41.8823	-119.662	100.66	-61.0349	-116.051	116.998	-90.3481	-111.159	126.199	-106.365	-132.249	75.4538	-112.288	-104.047	63.5162	-109.538	-111.261	66.3525	-75.7168	-132.459	52.6108	-112.869	-104.998	48.9112	-102.381	-115.707	61.6977	-67.6785	-141.019	35.48	-105.403	-110.313	34.7479	-96.3694	-116.899	45.4955	-64.2061	-159.783	15.9774	-97.1703	-150.105	4.68663	-117.282	-145.821	-10.5192	-137.733	-173.217	51.1191	-63.8989	-176.916	51.5679	-29.6396	-165.076	82.7992	-52.9171	
53	0.441667	-139.341	97.5871	-43.0104	-130.198	107.18	-69.3416	-127.701	120.481	-93.2099	-125.068	127.412	-109.802	-136.117	74.6267	-114.35	-105.289	67.6273	-110.292	-109.97	70.6253	-79.1523	-132.038	55.4645	-113.711	-104.174	52.1892	-98.7353	-120.196	62.6042	-67.8147	-135.444	38.448	-106.846	-108.31	36.2122	-94.6611	-113.537	50.6139	-65.7169	-154.394	15.2387	-97.3277	-141.868	4.62323	-115.684	-133.773	-9.00198	-133.662	-176.194	44.0531	-60.3099	-176.335	49.8443	-32.6369	-169.532	80.411	-55.7646	
54	0.45	-148.311	97.8173	-50.2212	-139.299	106.564	-69.8423	-139.762	120.17	-95.2398	-138.406	127.274	-113.414	-138.026	71.3608	-116.104	-106.022	70.034	-108.192	-114.576	74.0947	-79.0268	-134.004	48.8266	-112.096	-105.639	56.0777	-97.5669	-124.329	67.0177	-68.6819	-133.484	32.1631	-103.689	-104.605	38.8888	-89.6422	-115.629	54.4777	-64.8081	-146.546	10.0993	-97.5636	-133.006	1.80552	-112.713	-119.066	-7.64958	-130.77	-174.451	38.7265	-62.6835	-173.69	44.3407	-31.2154	-171.677	75.3244	-55.9487	
55	0.458333	-153.965	94.2829	-50.4305	-148.009	107.069	-74.6236	-149.119	115.324	-97.2723	-151.313	129.614	-116.752	-142.212	67.6945	-115.667	-110.897	70.8932	-110.138	-120.351	76.2684	-79.1961	-134.381	49.9904	-112.685	-105.999	60.2495	-99.1748	-124.025	65.6566	-69.508	-133.478	34.2358	-103.764	-102.953	45.1598	-88.7129	-116.678	57.893	-64.1009	-141.571	6.89543	-94.2376	-127.558	2.49532	-109.72	-106.133	-8.99018	-128.749	-171.385	37.1159	-62.3458	-174.123	43.9827	-34.5072	-177.384	69.8156	-54.2282	
56	0.466667	-161.468	93.7097	-53.4505	-156.881	106.274	-75.2672	-160.793	116.385	-99.0421	-162.597	125.959	-115.737	-143.015	68.5739	-118.193	-114.453	76.2488	-111.959	-122.763	80.7458	-81.3591	-132.837	49.5873	-113.76	-107.785	61.6549	-97.4842	-130.172	66.3105	-69.0947	-130.705	33.9555	-102.432	-103.507	49.4033	-88.1565	-121.618	62.474	-64.2684	-137.579	9.81964	-91.2982	-121.203	3.95134	-107.224	-99.2663	-4.66733	-125.465	-169.175	28.1899	-64.759	-174.036	37.4928	-30.8165	-177.653	66.0116	-58.8394	
57	0.475	-166.051	91.0515	-49.897	-162.719	101.005	-73.4713	-167.132	107.997	-101.187	-171.568	117.101	-118.934	-143.306	68.18	-118.385	-117.389	76.0835	-110.34	-129.767	80.9564	-80.5782	-133.093	47.9881	-112.843	-109.141	62.8183	-101.883	-132.887	68.6224	-69.9238	-124.765	36.951	-103.62	-104.494	55.5919	-90.2006	-121.032	64.2707	-65.1871	-130.286	8.95419	-89.7525	-110.636	3.73192	-106.5	-93.8409	-1.47505	-122.471	-164.428	26.9065	-60.2886	-173.004	38.3986	-32.7727	-180.277	59.9412	-55.6526	
58	0.483333	-172.681	91.7879	-50.7404	-167.672	98.2051	-74.8177	-174.762	106.194	-97.5377	-180.945	113.155	-120.137	-148.4	64.8145	-116.75	-121.31	77.577	-113.002	-134.852	80.7014	-79.3886	-134.855	47.1494	-110.216	-111.855	68.5759	-98.1221	-134.487	72.0217	-70.0436	-125.248	35.6493	-100.649	-105.336	58.4732	-88.1103	-123.795	66.1091	-64.9366	-123.941	9.8088	-87.749	-107.59	9.25768	-103.793	-86.2844	6.11349	-122.098	-163.152	27.484	-62.336	-168.757	34.7308	-29.2513	-180.518	54.4335	-56.0102	
59	0.491667	-175.674	89.5028	-49.4651	-171.257	96.0222	-74.5807	-178.655	102.382	-98.0289	-184.134	107.044	-121.082	-148.461	65.8819	-118.94	-125.958	83.5622	-111.613	-134.003	81.3811	-82.2857	-132.194	47.3589	-111.178	-113.571	69.588	-102.719	-132.506	70.6714	-70.1764	-121.279	38.2499	-100.683	-108.737	63.4124	-87.8826	-130.745	64.765	-61.5209	-120.807	12.5903	-84.411	-99.0567	11.3809	-104.219	-83.3983	12.6087	-118.578	-158.63	22.2998	-54.5766	-166.163	30.3227	-27.7304	-182.372	53.5703	-55.3087	
60	0.5	-178.688	86.0535	-48.6787	-174.666	92.7035	-72.9411	-184.094	99.7354	-101.03	-188.519	102.523	-119.472	-153.522	60.0288	-114.224	-127.581	78.1287	-114.238	-139.211	78.951	-79.5479	-136.488	48.7859	-111.583	-115.539	68.9781	-103.326	-138.372	74.7667	-70.8955	-121.598	37.9846	-99.5182	-107.668	63.175	-86.4301	-130.087	66.6217	-64.1089	-118.375	14.0635	-85.3711	-97.9475	13.1267	-100.223	-79.9011	12.0113	-117.232	-157.042	22.2238	-58.2483	-164.786	31.6197	-25.3603	-177.565	47.1416	-51.7924	
61	0.508333	-179.903	84.0306	-49.6665	-177.855	93.4017	-72.7881	-186.317	99.8528	-96.558	-193.775	104.165	-119.194	-152.915	56.7215	-113.572	-128.635	77.4321	-112.698	-141.09	81.835	-81.1288	-134.893	48.2839	-110.946	-116.764	70.3856	-99.6448	-138.536	72.644	-70.5953	-120.208	36.1223	-96.9146	-109.398	64.3263	-87.938	-130.869	63.3048	-60.8007	-113.247	11.6535	-84.3887	-96.2484	14.0384	-101.58	-79.927	17.0754	-118.611	-153.848	20.0929	-56.8899	-161.637	29.534	-27.4317	-182.604	47.9531	-50.6513	
